<svg width="223" height="54" viewBox="0 0 223 54" fill="none" xmlns="http://www.w3.org/2000/svg">
    <path fill-rule="evenodd" clip-rule="evenodd" d="M46.6722 0.0416373L31.255 7.76022C31.1709 7.80017 31.0731 7.80017 30.988 7.76022L15.5487 0.0416373C15.4205 -0.0245941 15.2649 -0.0109273 15.1492 0.0763299C15.0336 0.163587 14.9789 0.309717 15.0083 0.451641L18.8613 19.7197L25.4025 17.5025C25.5707 17.4468 25.7567 17.5183 25.8451 17.6728L31.1078 26.7676H41.6376C41.8163 26.7676 41.9698 26.6414 42.0066 26.4669L47.2136 0.451641C47.243 0.309717 47.1884 0.163587 47.0727 0.0763299C46.9571 -0.0109273 46.8015 -0.0245941 46.6732 0.0416373H46.6722Z" fill="url(#paint0_linear_35_3902)"/>
    <path fill-rule="evenodd" clip-rule="evenodd" d="M25.9249 36.3786C25.7903 36.2598 25.7567 36.0632 25.845 35.9065L31.1078 26.8129L25.845 17.7192C25.7567 17.5636 25.5717 17.4921 25.4024 17.5478L0.255507 26.0107C0.118839 26.057 0.021069 26.1768 0.00319699 26.3198C-0.0157263 26.4628 0.0505051 26.6037 0.171404 26.6815L14.5657 36.1904C14.6456 36.2419 14.696 36.3292 14.7024 36.4238L15.7305 53.646C15.7389 53.789 15.8293 53.9152 15.9618 53.9698C16.0953 54.0245 16.2488 53.9972 16.355 53.9015L31.1078 40.9254L25.9249 36.3786Z" fill="url(#paint1_linear_35_3902)"/>
    <path fill-rule="evenodd" clip-rule="evenodd" d="M61.9426 26.0116L43.3599 19.7207L42.0069 26.49C41.9701 26.6645 41.8166 26.7896 41.6379 26.7906H31.1082L25.8454 35.8843C25.7582 36.042 25.7908 36.2375 25.9253 36.3574L45.8662 53.9024C45.9713 54.0002 46.1238 54.0264 46.2573 53.9718C46.3898 53.9171 46.4781 53.7899 46.4854 53.6459L47.5199 36.4247C47.5252 36.3301 47.5756 36.2428 47.6566 36.1913L62.0498 26.6824C62.1707 26.6004 62.2327 26.4563 62.2096 26.3134C62.1865 26.1693 62.0824 26.0526 61.9415 26.0116H61.9426Z" fill="url(#paint2_linear_35_3902)"/>
    <path d="M102.853 16.098C102.724 11.8304 100.944 9.95933 96.5332 9.95933C92.3522 9.95933 90.7389 13.1143 90.7389 17.0763V22.3284C90.882 26.7108 92.7433 28.9112 95.7932 28.9112H99.1345C99.6882 28.8732 100.111 28.4017 100.089 27.8472V27.0066C100.111 26.452 99.6882 25.9805 99.1354 25.9417H96.233C95.8859 25.9478 95.5398 25.9134 95.2016 25.8366C94.4422 25.6459 93.6361 24.5386 93.5266 22.3134L93.4974 17.9028H101.884C102.452 17.8746 102.889 17.3916 102.863 16.8238V16.6331C102.863 16.6331 102.857 16.098 102.853 16.098ZM93.4974 15.4154C93.7491 13.8322 95.0718 12.6392 96.6718 12.5509C98.7433 12.5509 100.013 13.6017 100.385 15.4154H93.4974ZM76.2144 6.62246C76.2109 6.34079 76.3186 6.06971 76.5147 5.86838C76.7107 5.66706 76.9791 5.55138 77.2599 5.54785H81.6511C85.9469 5.54785 87.455 8.00613 87.5124 11.6441C87.5363 13.5205 86.8105 15.335 84.9685 16.1271C87.6793 16.7425 88.8581 18.8052 88.8873 21.7695C88.8873 26.7443 86.2957 28.9589 81.8418 28.9589H77.2555C76.6833 28.9492 76.2224 28.4856 76.2144 27.9134V6.62246ZM78.8873 8.25513V15.1867H81.3314C83.9804 15.1867 84.8255 13.3342 84.8255 11.6344C84.8255 9.18052 83.8948 8.23571 81.6705 8.23571H78.8979L78.8873 8.25513ZM81.9045 26.2145C85.169 26.2145 86.1279 24.5147 86.1279 21.8127C86.1279 18.8105 84.5244 17.9938 81.9902 17.9938H78.9447V26.2048L81.9045 26.2136V26.2145Z" fill="white"/>
    <path fill-rule="evenodd" clip-rule="evenodd" d="M192.695 10.8866V11.6212C192.698 11.9038 192.59 12.1757 192.393 12.3779C192.196 12.581 191.926 12.6958 191.645 12.7002H187.931V27.8437C187.935 28.1254 187.827 28.3974 187.63 28.5996C187.433 28.8027 187.164 28.9174 186.881 28.9219H185.927C185.35 28.8989 184.897 28.4203 184.905 27.8428V12.7002H181.187C180.903 12.6994 180.632 12.5846 180.434 12.3815C180.235 12.1784 180.127 11.9047 180.132 11.6221V10.8866C180.127 10.604 180.235 10.332 180.431 10.1298C180.627 9.92673 180.895 9.81106 181.178 9.80752H191.645C191.927 9.81106 192.196 9.92673 192.393 10.1289C192.59 10.332 192.698 10.604 192.695 10.8866ZM133.801 11.087C133.805 10.8044 133.696 10.5316 133.499 10.3294C133.302 10.1272 133.033 10.0115 132.75 10.008H122.221C121.939 10.0115 121.671 10.1272 121.474 10.3303C121.278 10.5325 121.171 10.8044 121.176 11.087V28.0389C121.171 28.3214 121.278 28.5934 121.474 28.7956C121.671 28.9987 121.94 29.1135 122.221 29.1179H123.176C123.458 29.1135 123.728 28.9978 123.925 28.7956C124.122 28.5934 124.23 28.3214 124.226 28.0389V13.1161H130.775V28.0389C130.771 28.3214 130.879 28.5934 131.076 28.7956C131.273 28.9987 131.542 29.1135 131.825 29.1179H132.779C133.061 29.1135 133.33 28.9978 133.527 28.7956C133.725 28.5934 133.833 28.3214 133.829 28.0389V12.0565L133.801 11.087ZM221.242 28.9457C221.657 28.936 222.03 28.6879 222.2 28.3091C222.37 27.9294 222.307 27.487 222.039 27.17L214.173 18.3188L219.943 11.6353C220.241 11.3281 220.328 10.8742 220.167 10.4786C220.006 10.083 219.626 9.81989 219.199 9.80752H218.024C217.742 9.80841 217.471 9.92585 217.276 10.1316L212.98 15.2777V10.9148C212.985 10.6322 212.877 10.3603 212.681 10.1581C212.485 9.95498 212.216 9.84019 211.934 9.83578H210.98C210.697 9.83931 210.428 9.95587 210.231 10.1581C210.034 10.3603 209.926 10.6322 209.93 10.9148V27.8667C209.926 28.1492 210.034 28.4212 210.231 28.6243C210.428 28.8265 210.697 28.9422 210.98 28.9457H211.934C212.217 28.9422 212.485 28.8256 212.681 28.6234C212.877 28.4203 212.985 28.1483 212.98 27.8667V21.4985L219.366 28.5687C219.56 28.8071 219.851 28.9448 220.159 28.9457H221.242ZM179.42 28.9457C179.835 28.9342 180.206 28.6852 180.375 28.3073C180.545 27.9276 180.481 27.4861 180.213 27.17L172.352 18.3188L178.122 11.6353C178.42 11.3281 178.507 10.8733 178.345 10.4768C178.182 10.0804 177.801 9.81724 177.374 9.80752H176.199C175.917 9.80929 175.648 9.92673 175.455 10.1316L171.159 15.2777V10.9148C171.163 10.6322 171.054 10.3603 170.857 10.1581C170.66 9.95498 170.391 9.84019 170.109 9.83578H169.154C168.872 9.83931 168.604 9.95587 168.408 10.1581C168.212 10.3612 168.104 10.6331 168.109 10.9148V27.8667C168.104 28.1492 168.212 28.4212 168.408 28.6234C168.604 28.8265 168.872 28.9413 169.154 28.9457H170.109C170.392 28.9422 170.66 28.8265 170.857 28.6243C171.054 28.4212 171.163 28.1492 171.159 27.8667V21.4985L177.541 28.5687C177.736 28.8053 178.026 28.9431 178.333 28.9457H179.42ZM205.563 9.80752H204.412C204.048 9.89582 203.744 10.1457 203.586 10.4848L202.67 12.3232L197.754 22.1863V10.8866C197.758 10.604 197.649 10.3311 197.452 10.1289C197.255 9.92673 196.986 9.81106 196.703 9.80752H195.75C195.163 9.81812 194.696 10.3002 194.704 10.8866V27.8384C194.699 28.1201 194.806 28.3921 195.003 28.5951C195.199 28.7982 195.467 28.913 195.749 28.9174H196.703C196.779 28.9245 196.854 28.9245 196.929 28.9174C197.315 28.838 197.638 28.574 197.792 28.211L198.747 26.3682L203.577 16.6481V27.8384C203.571 28.1201 203.679 28.3921 203.875 28.5951C204.071 28.7982 204.341 28.913 204.622 28.9174H205.577C205.859 28.913 206.129 28.7974 206.326 28.5951C206.522 28.3921 206.631 28.121 206.627 27.8384V10.8866C206.631 10.6013 206.521 10.3267 206.32 10.1245C206.12 9.92143 205.847 9.80664 205.563 9.80664V9.80752Z" fill="white"/>
    <path d="M150.573 21.7761C150.573 26.4013 148.807 28.9373 144.245 28.9373C142.139 28.9373 140.679 28.4976 139.949 27.4097V33.0044C139.949 33.6084 139.469 34.1028 138.865 34.1214H138.087C137.472 34.1108 136.981 33.6048 136.989 32.9894V16.8923C136.989 11.8124 138.899 9.76909 143.781 9.76909C148.664 9.76909 150.573 11.8124 150.573 16.8923V21.7753V21.7761ZM139.968 21.838C139.935 24.6353 141.61 26.0534 143.786 26.0534C146.421 26.0534 147.628 24.592 147.628 21.709V16.8923C147.628 14.2565 146.33 12.6768 143.786 12.6768C141.242 12.6768 139.939 14.2088 139.939 16.8923L139.967 21.8371L139.968 21.838ZM112.356 9.80794C110.284 9.80794 108.843 10.5815 108.117 11.6358C108.232 9.39735 109.02 8.42781 110.466 8.09404C110.828 8.01457 111.198 7.97748 111.568 7.98366H112.398C112.679 7.98278 112.946 7.87064 113.143 7.67196C113.34 7.47329 113.45 7.20397 113.449 6.92406V6.0649C113.452 5.48212 112.982 5.0053 112.398 5H111.115C106.819 5.24901 105.125 7.35408 105.097 12.1179V21.8759C105.097 26.9558 107.006 28.9991 111.888 28.9991C116.771 28.9991 118.237 26.9558 118.237 21.8759V16.9929C118.245 12.366 116.924 9.80794 112.356 9.80794ZM115.287 21.8759C115.287 25.2605 114.127 26.0914 111.888 26.0914C109.345 26.0914 108.07 25.2614 108.07 21.8759L108.084 16.9346C108.117 13.5501 109.731 12.7201 111.903 12.7201C114.175 12.7201 115.301 13.5792 115.301 17.0592L115.287 21.8759H115.287ZM164.634 16.5294C164.486 12.147 162.811 10.185 158.85 9.94569H157.614C157.339 9.95276 157.077 10.0684 156.887 10.268C156.698 10.4684 156.597 10.736 156.607 11.0106V11.8653C156.598 12.1399 156.7 12.4066 156.889 12.6071C157.078 12.8057 157.339 12.9223 157.613 12.9302H158.411C158.765 12.9241 159.119 12.9594 159.465 13.0344C160.453 13.2269 161.242 13.9704 161.494 14.9444H159.422C154.486 14.9444 152.502 16.8923 152.502 21.9377C152.502 26.9841 154.487 28.9267 159.422 28.9267H163.623C163.905 28.9232 164.173 28.8075 164.369 28.6053C164.566 28.4022 164.673 28.1302 164.667 27.8485L164.635 16.5285L164.634 16.5294ZM159.422 25.9104C156.134 25.9104 155.327 24.5735 155.327 21.9572C155.327 19.3408 156.134 17.9951 159.422 17.9951H161.771C161.771 19.9042 161.794 23.3655 161.804 25.8953L159.422 25.9104Z" fill="white"/>
    <path d="M148.565 34.298C149.897 34.298 150.929 34.742 151.661 35.63C152.405 36.518 152.777 37.724 152.777 39.248C152.777 40.232 152.609 41.102 152.273 41.858C151.937 42.602 151.451 43.184 150.815 43.604C150.179 44.012 149.423 44.216 148.547 44.216C147.215 44.216 146.177 43.772 145.433 42.884C144.689 41.996 144.317 40.79 144.317 39.266C144.317 38.282 144.485 37.418 144.821 36.674C145.157 35.918 145.643 35.336 146.279 34.928C146.915 34.508 147.677 34.298 148.565 34.298ZM148.565 35.63C146.921 35.63 146.099 36.842 146.099 39.266C146.099 41.678 146.915 42.884 148.547 42.884C150.179 42.884 150.995 41.672 150.995 39.248C150.995 36.836 150.185 35.63 148.565 35.63ZM159.383 35.126C160.463 35.126 161.321 35.516 161.957 36.296C162.605 37.076 162.929 38.138 162.929 39.482C162.929 40.982 162.551 42.146 161.795 42.974C161.039 43.802 160.025 44.216 158.753 44.216C157.481 44.216 156.461 43.766 155.693 42.866C154.937 41.966 154.559 40.604 154.559 38.78C154.559 37.4 154.661 36.272 154.865 35.396C155.081 34.508 155.447 33.782 155.963 33.218C156.491 32.642 157.229 32.192 158.177 31.868C158.885 31.628 159.449 31.412 159.869 31.22C160.301 31.028 160.739 30.782 161.183 30.482L161.885 31.724C161.465 31.988 161.027 32.234 160.571 32.462C160.127 32.678 159.593 32.888 158.969 33.092C158.369 33.296 157.895 33.53 157.547 33.794C157.199 34.046 156.917 34.418 156.701 34.91C156.497 35.39 156.359 36.05 156.287 36.89C156.623 36.338 157.055 35.906 157.583 35.594C158.111 35.282 158.711 35.126 159.383 35.126ZM158.753 42.884C159.485 42.884 160.067 42.638 160.499 42.146C160.931 41.642 161.147 40.772 161.147 39.536C161.147 38.444 160.967 37.658 160.607 37.178C160.259 36.698 159.749 36.458 159.077 36.458C158.525 36.458 158.009 36.608 157.529 36.908C157.049 37.196 156.653 37.64 156.341 38.24V39.392C156.341 40.508 156.551 41.372 156.971 41.984C157.403 42.584 157.997 42.884 158.753 42.884ZM169.124 44.054C168.752 45.158 168.23 46.028 167.558 46.664C166.898 47.312 165.95 47.702 164.714 47.834L164.534 46.538C165.158 46.43 165.656 46.274 166.028 46.07C166.4 45.866 166.694 45.602 166.91 45.278C167.138 44.966 167.348 44.54 167.54 44H166.982L163.796 34.514H165.56L168.098 42.794L170.582 34.514H172.292L169.124 44.054ZM180.432 34.514V44H178.776V40.04C178.428 40.364 177.996 40.622 177.48 40.814C176.976 40.994 176.454 41.084 175.914 41.084C175.014 41.084 174.336 40.844 173.88 40.364C173.424 39.872 173.196 39.176 173.196 38.276V34.514H174.852V38.078C174.852 38.678 174.972 39.116 175.212 39.392C175.464 39.656 175.848 39.788 176.364 39.788C176.784 39.788 177.222 39.692 177.678 39.5C178.146 39.308 178.512 39.062 178.776 38.762V34.514H180.432ZM190.741 38.978C190.741 39.254 190.729 39.536 190.705 39.824H184.657C184.729 40.868 184.993 41.636 185.449 42.128C185.905 42.62 186.493 42.866 187.213 42.866C187.669 42.866 188.089 42.8 188.473 42.668C188.857 42.536 189.259 42.326 189.679 42.038L190.399 43.028C189.391 43.82 188.287 44.216 187.087 44.216C185.767 44.216 184.735 43.784 183.991 42.92C183.259 42.056 182.893 40.868 182.893 39.356C182.893 38.372 183.049 37.502 183.361 36.746C183.685 35.978 184.141 35.378 184.729 34.946C185.329 34.514 186.031 34.298 186.835 34.298C188.095 34.298 189.061 34.712 189.733 35.54C190.405 36.368 190.741 37.514 190.741 38.978ZM189.103 38.492C189.103 37.556 188.917 36.842 188.545 36.35C188.173 35.858 187.615 35.612 186.871 35.612C185.515 35.612 184.777 36.608 184.657 38.6H189.103V38.492ZM198.714 44V39.824H194.772V44H193.116V34.514H194.772V38.492H198.714V34.514H200.37V44H198.714ZM210.896 44H209.258V39.716C209.258 38.996 209.282 38.312 209.33 37.664C209.378 37.016 209.42 36.59 209.456 36.386L205.478 44H203.516V34.514H205.154V38.798C205.154 39.434 205.13 40.094 205.082 40.778C205.034 41.45 204.998 41.882 204.974 42.074L208.898 34.514H210.896V44ZM221.203 38.978C221.203 39.254 221.191 39.536 221.167 39.824H215.119C215.191 40.868 215.455 41.636 215.911 42.128C216.367 42.62 216.955 42.866 217.675 42.866C218.131 42.866 218.551 42.8 218.935 42.668C219.319 42.536 219.721 42.326 220.141 42.038L220.861 43.028C219.853 43.82 218.749 44.216 217.549 44.216C216.229 44.216 215.197 43.784 214.453 42.92C213.721 42.056 213.355 40.868 213.355 39.356C213.355 38.372 213.511 37.502 213.823 36.746C214.147 35.978 214.603 35.378 215.191 34.946C215.791 34.514 216.493 34.298 217.297 34.298C218.557 34.298 219.523 34.712 220.195 35.54C220.867 36.368 221.203 37.514 221.203 38.978ZM219.565 38.492C219.565 37.556 219.379 36.842 219.007 36.35C218.635 35.858 218.077 35.612 217.333 35.612C215.977 35.612 215.239 36.608 215.119 38.6H219.565V38.492Z" fill="#CFD2CF"/>
    <defs>
        <linearGradient id="paint0_linear_35_3902" x1="15.0027" y1="13.3934" x2="47.2192" y2="13.3934" gradientUnits="userSpaceOnUse">
            <stop stop-color="#FF090A"/>
            <stop offset="1" stop-color="#FF7102"/>
        </linearGradient>
        <linearGradient id="paint1_linear_35_3902" x1="21.362" y1="18.7074" x2="4.2534" y2="50.6722" gradientUnits="userSpaceOnUse">
            <stop offset="0.21" stop-color="#2A00B5"/>
            <stop offset="1" stop-color="#00CFFF"/>
        </linearGradient>
        <linearGradient id="paint2_linear_35_3902" x1="44.0078" y1="53.9985" x2="44.0078" y2="19.7207" gradientUnits="userSpaceOnUse">
            <stop stop-color="#FF7502"/>
            <stop offset="1" stop-color="#FFF201"/>
        </linearGradient>
    </defs>
</svg>
