<svg width="33" height="30" viewBox="0 0 33 30" fill="none" xmlns="http://www.w3.org/2000/svg">
<path fill-rule="evenodd" clip-rule="evenodd" d="M0.507853 22.5934C0.719775 21.2116 1.26404 20.0042 2.24563 18.7383C2.46127 18.4602 6.34775 14.5195 10.8823 9.98121C19.5548 1.30144 19.4617 1.38935 20.5985 0.818733C21.7747 0.228272 22.726 0 24.0107 0C27.2081 0 30.2744 2.02203 31.85 5.16986C33.2905 8.04759 33.0161 11.1113 31.0883 13.6735C30.6155 14.3019 16.587 28.3584 16.2871 28.5042C15.9523 28.667 15.7112 28.6615 15.375 28.4832C15.1875 28.3838 15.0547 28.2506 14.9555 28.0625C14.7858 27.7407 14.7734 27.5137 14.9075 27.189C14.976 27.0232 17.1245 24.8248 22.2091 19.7178C27.0659 14.8398 29.501 12.3503 29.6818 12.0786C30.041 11.5383 30.3551 10.8425 30.5068 10.2506C31.2391 7.39431 29.5266 4.10864 26.5628 2.68339C25.5484 2.19557 25.1891 2.11695 23.9792 2.11796C23.0982 2.11872 22.9112 2.13762 22.4983 2.26742C21.9362 2.44413 21.4291 2.69218 20.8284 3.08426C20.1793 3.50788 4.0744 19.664 3.60034 20.3671C2.89709 21.4099 2.52271 22.503 2.52391 23.5097C2.52485 24.2605 2.66078 24.8344 3.00182 25.5273C3.23894 26.0091 3.39283 26.2216 3.80665 26.6385C4.37631 27.2123 4.77797 27.4666 5.4966 27.7082C7.21642 28.2865 9.05679 27.7132 10.9035 26.0241C12.1922 24.8452 22.79 14.1312 23.0799 13.714C23.6751 12.8577 23.9071 12.2027 23.908 11.3757C23.9097 9.86865 22.9032 8.7824 21.4988 8.77545C21.2341 8.77418 20.8757 8.80755 20.7024 8.84964C20.232 8.96397 19.5603 9.30189 19.064 9.67387C18.8213 9.85569 16.2976 12.3289 13.4556 15.1699C10.6136 18.0109 8.22637 20.367 8.15069 20.4057C7.79144 20.5897 7.17369 20.4123 6.90506 20.0482C6.73996 19.8244 6.69686 19.2338 6.82749 18.9854C6.97034 18.7139 17.3503 8.35695 17.8667 7.97068C18.455 7.53063 19.5698 6.99168 20.226 6.83002C20.9373 6.65483 21.917 6.65205 22.5851 6.82338C23.6125 7.08698 24.596 7.7809 25.1669 8.64532C25.6816 9.42437 25.8959 10.1029 25.9464 11.113C25.9992 12.169 25.8197 12.9932 25.3181 13.9984C24.834 14.9684 24.6574 15.1587 18.4379 21.4133C15.1084 24.7616 12.1312 27.7156 11.8218 27.9777C9.09088 30.2916 5.8735 30.6433 3.27644 28.9117C1.99054 28.0544 0.939951 26.4935 0.597588 24.9317C0.478488 24.3884 0.429273 23.1059 0.507853 22.5934Z" fill="black"/>
</svg>
